<svg viewBox="0 0 1524 1524" xmlns="http://www.w3.org/2000/svg" fill-rule="evenodd" clip-rule="evenodd" stroke-linejoin="round" stroke-miterlimit="1.414">
  <path fill="none" d="M0 0h1523.77v1523.77H0z"/>
  <g stroke="#000" stroke-width="16.67">
    <path d="M1502.53 882.006c.77-4.808 1.5-9.623 2.17-14.446 21.37-152.623-5.15-312.063-76.38-449.612-77.34-149.358-206.23-271.606-359.94-340.643-94.805-42.579-198.074-64.828-302.85-65.41-1.617-.006-3.234-.009-4.85-.008-103.512.247-207.878 22.028-303.192 64.487-154.208 68.695-284.26 191.4-362.022 341.574C29.398 545.539 1.608 692.21 15.284 835.288c35.912 15.796 74.726 27.219 113.964 26.234 39.295-.986 77.11-16.127 110.731-38.05 46.133-30.082 86.293-68.88 129.398-102.712 39.369-30.898 81.293-58.223 126.859-79.764 50.896-24.062 103.24-44.97 159.881-51.008 15.062-1.606 30.291-2.265 45.333-2.252 62.28.144 124.27 10.22 185.817 20.365 2.458.405 4.915.813 7.372 1.222 4.849.807 9.606 3.556 10.293 8.429.423 3.006-.705 6.134-2.838 8.17-2.15 2.054-2.9 2.163-6.203 2.667-17.925 2.8-35.245 8.897-51.766 16.532-40.084 18.526-74.53 49.35-96.028 87.83-40.2 71.957-41.942 165.146 5.258 236.03 41.458 62.259 114.353 100.099 183.484 120.119 72.071 20.87 149.681 20.79 221.891-.94 70.38-21.17 134.44-58.97 193.94-101.59 35.44-25.391 105.42-73.912 149.86-104.564z" fill="url(#_Linear1)"/>
    <path d="M16.024 835.612c35.705 15.628 74.255 26.888 113.224 25.91 39.295-.986 77.11-16.127 110.731-38.05 46.133-30.082 86.293-68.88 129.398-102.712 39.369-30.898 81.293-58.223 126.859-79.764 50.896-24.062 103.24-44.97 159.881-51.008 15.062-1.606 30.291-2.265 45.333-2.252 62.28.144 124.27 10.22 185.817 20.365 2.458.405 4.915.813 7.372 1.222 4.849.807 9.606 3.556 10.293 8.429.423 3.006-.705 6.134-2.838 8.17-2.15 2.054-2.9 2.163-6.203 2.667-17.925 2.8-35.245 8.897-51.766 16.532-40.084 18.526-74.53 49.35-96.028 87.83-40.2 71.957-41.942 165.146 5.258 236.03 41.458 62.259 114.353 100.099 183.484 120.119 72.071 20.87 149.681 20.79 221.891-.94 70.38-21.17 134.44-58.97 193.94-101.59 35.24-25.251 104.65-73.379 149.13-104.057-57.79 356.687-367.25 629.377-739.846 629.377-388.765 0-708.797-296.88-745.93-676.278z" fill="url(#_Linear2)" stroke-linecap="round" stroke-miterlimit="1.5"/>
  </g>
  <path d="M1270.16 264.07a52.426 52.426 0 00-15.34-37.054 52.418 52.418 0 00-37.06-15.348H305.846a52.403 52.403 0 00-52.402 52.402v743.52c0 13.9 5.521 27.23 15.348 37.05a52.392 52.392 0 0037.054 15.35h911.914c13.9 0 27.23-5.52 37.06-15.35a52.4 52.4 0 0015.34-37.05V264.07z" fill="#fff"/>
  <path d="M1270.16 264.07a52.426 52.426 0 00-15.34-37.054 52.418 52.418 0 00-37.06-15.348H305.846a52.403 52.403 0 00-52.402 52.402v743.52c0 13.9 5.521 27.23 15.348 37.05a52.392 52.392 0 0037.054 15.35h911.914c13.9 0 27.23-5.52 37.06-15.35a52.4 52.4 0 0015.34-37.05V264.07zm-12.5 0v743.52a39.896 39.896 0 01-39.9 39.9H305.846a39.875 39.875 0 01-28.215-11.69 39.89 39.89 0 01-11.687-28.21V264.07a39.903 39.903 0 0139.902-39.902h911.914a39.93 39.93 0 0128.22 11.687 39.91 39.91 0 0111.68 28.215z"/>
  <g fill="none" stroke="#000" stroke-width="20.83" stroke-miterlimit="1.5">
    <path d="M253.444 394.987H1270.16M253.444 932.757H1270.16"/>
    <ellipse cx="355.219" cy="304.579" rx="34.51" ry="34.54" stroke-linecap="round"/>
    <ellipse cx="468.742" cy="304.579" rx="34.51" ry="34.54" stroke-linecap="round"/>
    <ellipse cx="581.797" cy="304.579" rx="34.51" ry="34.54" stroke-linecap="round"/>
    <path d="M411.412 574.161l40.95-105.572M484.404 574.161l52.485-52.786-52.485-52.786M377.176 468.589l-52.485 52.786 52.485 52.786M587.915 518.239h63.6M685.635 722.956h61.474M610.808 722.956h38.455M329.252 722.956h54.407M328.923 786.031h89.125M328.945 658.593h113.373M425.922 721.815h141.024M607.694 786.031h145.278M454.168 786.031h113.373M486.633 658.593h191.573M699.926 518.239h330.024" stroke-linecap="round"/>
  </g>
  <g stroke="#000" stroke-miterlimit="1.5">
    <g stroke-linecap="round">
      <path d="M1023.57 656.215H816.376a20 20 0 00-20 20v63.211a19.996 19.996 0 0020 20h379.494a20 20 0 0020-20v-63.211a20.006 20.006 0 00-20-20h-88" fill="#8bea68" stroke-width="12.5"/>
      <g fill="none" stroke-width="17.78">
        <path d="M849.169 707.821h83.807M974.637 707.821h33.823M1049.02 707.821h114.06"/>
      </g>
    </g>
    <g stroke-linecap="round">
      <path d="M1215.93 842.375a20.002 20.002 0 00-20-20H816.61a20 20 0 00-20 20v63.247a20 20 0 0020 20h379.32a20.005 20.005 0 0020-20v-63.247z" fill="#8bea68" stroke-width="12.5"/>
      <g fill="none" stroke-width="17.78">
        <path d="M849.169 873.371h83.807M974.637 873.371h33.823M1049.02 873.371h114.06"/>
      </g>
    </g>
    <g stroke-linecap="round">
      <path d="M1218.12 1007.04a20 20 0 00-20-20H818.801a20 20 0 00-20 20v63.25a20 20 0 0020 20h379.319a20.006 20.006 0 0020-20v-63.25z" fill="#8bea68" stroke-width="12.5"/>
      <g fill="none" stroke-width="17.78">
        <path d="M849.169 1038.66h83.807M974.637 1038.66h33.823M1049.02 1038.66h114.06"/>
      </g>
    </g>
    <g fill="none" stroke-width="16.67">
      <path d="M842.6 759.426v62.949M842.404 925.622v61.418M1170.33 759.426v62.949M1170.13 925.622v61.418"/>
    </g>
  </g>
  <defs>
    <linearGradient id="_Linear1" x1="0" y1="0" x2="1" y2=".001" gradientUnits="userSpaceOnUse" gradientTransform="matrix(351.619 -538.608 538.148 351.919 531.468 1054.63)">
      <stop offset="0" stop-color="#d5d11c"/>
      <stop offset="1" stop-color="#e2e08d"/>
    </linearGradient>
    <linearGradient id="_Linear2" x1="0" y1="0" x2="1" y2=".001" gradientUnits="userSpaceOnUse" gradientTransform="matrix(280.958 -310.442 310.177 281.198 382.666 1189.13)">
      <stop offset="0" stop-color="#3838e6"/>
      <stop offset="1" stop-color="#0b66fa"/>
    </linearGradient>
  </defs>
</svg>

